<?xml version="1.0" standalone="no"?>
<!DOCTYPE svg PUBLIC "-//W3C//DTD SVG 20010904//EN"
 "http://www.w3.org/TR/2001/REC-SVG-20010904/DTD/svg10.dtd">
<svg version="1.0" xmlns="http://www.w3.org/2000/svg"
 width="512.000000pt" height="512.000000pt" viewBox="0 0 512.000000 512.000000"
 preserveAspectRatio="xMidYMid meet">
<g transform="translate(0.000000,512.000000) scale(0.100000,-0.100000)"
fill="#000000" stroke="none">
<path d="M574 4667 c-16 -5 -83 -10 -149 -11 -66 -2 -138 -8 -160 -14 -45 -13
-145 -102 -146 -130 0 -9 -4 -41 -8 -71 -5 -34 -4 -65 3 -83 8 -21 7 -34 -2
-49 -8 -12 -11 -33 -7 -48 4 -17 -2 -44 -15 -75 -15 -32 -18 -51 -12 -59 6 -7
10 -23 10 -37 -1 -14 0 -38 2 -55 5 -53 -10 -298 -19 -309 -13 -17 -21 -85
-10 -91 12 -8 12 -243 -1 -320 -5 -33 -12 -86 -15 -118 -3 -32 -10 -69 -15
-82 -5 -12 -6 -25 -4 -28 3 -3 -2 -21 -10 -41 -11 -28 -13 -43 -5 -64 16 -43
40 -220 33 -247 -4 -15 -1 -32 6 -40 10 -12 12 -56 7 -182 -3 -91 -1 -194 4
-227 5 -34 11 -115 14 -181 3 -66 8 -137 10 -158 8 -54 19 -267 19 -362 1 -85
-20 -277 -34 -310 -20 -49 -21 -106 -1 -143 11 -21 22 -66 25 -102 13 -160 23
-237 36 -260 7 -14 13 -42 11 -62 -2 -48 20 -91 64 -121 19 -13 33 -26 30 -29
-26 -25 122 -48 321 -48 66 0 124 -4 130 -9 14 -13 100 -21 111 -10 14 14 364
14 432 0 29 -6 73 -11 97 -11 23 0 46 -5 49 -10 3 -6 21 -10 39 -10 18 0 47
-5 65 -11 24 -9 50 -7 117 6 47 9 127 18 179 20 51 1 98 6 105 10 6 4 105 6
218 5 210 -3 435 4 462 14 43 15 753 30 793 17 16 -6 79 -15 140 -21 62 -6
125 -15 141 -20 23 -8 38 -5 75 14 33 18 69 26 126 30 240 17 345 38 345 71 0
7 10 11 25 9 16 -1 34 6 47 19 25 27 133 249 143 296 4 18 15 41 25 51 30 30
38 51 55 146 9 49 32 126 50 170 19 45 54 158 77 251 34 130 54 188 90 254 47
86 98 233 90 257 -2 7 0 18 6 25 5 7 13 44 16 82 4 39 17 97 30 130 47 122
113 378 121 473 2 18 10 43 18 55 8 12 15 34 15 49 -1 14 17 55 38 89 29 48
38 73 36 103 0 22 4 46 10 54 7 8 13 35 15 60 4 63 10 126 13 132 1 3 3 10 4
15 1 6 6 26 10 46 5 25 3 47 -8 72 -15 36 -40 49 -48 25 -3 -8 -22 -3 -61 16
-46 24 -71 29 -134 31 -167 4 -354 19 -368 29 -26 19 -30 78 -7 104 17 20 19
28 10 55 -6 18 -14 37 -18 42 -5 6 -6 25 -4 44 2 19 -4 52 -15 77 -11 24 -15
44 -10 44 6 0 7 5 4 10 -4 6 -1 17 5 25 10 12 10 18 0 30 -7 8 -9 15 -5 15 4
0 -7 18 -24 39 -29 37 -30 40 -16 67 17 33 8 48 -38 63 -45 14 -219 41 -267
41 -22 0 -40 4 -40 9 0 11 -632 7 -650 -4 -6 -4 -16 -2 -23 3 -24 19 -184 44
-244 37 -32 -3 -80 -8 -107 -10 -28 -3 -65 -10 -83 -16 -18 -6 -37 -8 -43 -4
-9 6 -201 7 -300 1 -25 -1 -82 -8 -128 -16 -72 -12 -85 -12 -92 1 -7 11 -12
11 -22 1 -16 -16 -48 -15 -91 3 -44 18 -94 20 -99 3 -6 -18 -117 11 -132 34
-6 11 -26 26 -44 35 -19 9 -35 21 -37 27 -2 6 -6 24 -10 39 -4 22 -16 33 -43
44 -21 8 -47 28 -57 44 -11 16 -26 29 -33 29 -7 0 -15 6 -18 14 -3 8 -19 18
-35 21 -16 4 -29 13 -29 20 0 7 -6 15 -14 18 -8 3 -16 16 -18 29 -2 15 -11 24
-26 26 -12 2 -20 6 -18 10 2 4 -28 8 -67 10 -38 1 -99 9 -134 17 -35 8 -76 15
-90 15 -15 0 -34 7 -44 16 -16 14 -26 15 -82 4 -49 -10 -78 -11 -118 -3 -35 7
-95 8 -169 3 -101 -7 -122 -6 -170 11 -58 21 -168 24 -226 6z m634 -364 c37
-10 69 -21 72 -24 3 -4 19 -10 37 -13 24 -6 34 -3 41 11 9 16 40 23 107 24 31
0 55 -38 55 -85 0 -39 2 -43 37 -55 21 -8 57 -34 80 -57 23 -24 49 -44 58 -44
8 0 15 -5 15 -10 0 -6 3 -9 8 -8 4 1 18 -5 32 -13 14 -9 43 -25 65 -35 30 -14
39 -24 37 -39 -1 -13 6 -24 20 -30 12 -6 23 -18 24 -28 4 -27 13 -33 32 -21 9
5 31 7 47 3 17 -4 65 -7 107 -8 42 0 79 -5 82 -10 8 -12 66 -22 79 -14 35 21
333 -2 362 -28 5 -5 18 -9 30 -9 12 0 30 -6 40 -14 14 -10 26 -11 45 -4 40 15
171 39 181 32 6 -3 18 -2 27 2 9 4 89 9 177 11 189 3 247 7 261 15 6 4 65 8
132 10 67 1 122 5 122 9 0 23 310 -4 362 -32 10 -5 26 -9 36 -9 19 0 65 -54
65 -77 0 -7 5 -13 10 -13 5 0 7 -17 4 -39 -2 -22 -1 -43 3 -48 5 -4 15 -33 23
-63 l14 -56 -206 1 c-113 0 -278 -1 -366 -3 -116 -2 -182 1 -238 12 -77 16
-307 22 -320 10 -3 -4 -41 -8 -83 -10 -42 -2 -94 -9 -116 -15 -22 -5 -47 -8
-56 -4 -29 11 -532 2 -551 -9 -5 -3 -85 -8 -178 -11 -122 -4 -197 -1 -268 10
-55 8 -102 11 -105 6 -10 -16 -70 -23 -86 -10 -11 9 -20 9 -37 1 -12 -6 -42
-13 -67 -17 -25 -3 -56 -8 -70 -10 -14 -3 -54 -8 -90 -11 -89 -7 -149 -38
-176 -90 -11 -22 -26 -38 -32 -36 -14 4 -72 -114 -99 -202 -11 -35 -24 -58
-35 -62 -10 -3 -18 -14 -18 -25 0 -10 -5 -19 -11 -19 -7 0 -9 -9 -5 -22 10
-40 -50 -220 -99 -298 -12 -19 -26 -46 -30 -60 -4 -14 -11 -27 -14 -30 -20
-16 -61 -94 -61 -115 0 -51 -22 -170 -36 -196 -7 -14 -11 -29 -8 -32 8 -8 -32
-154 -58 -214 -12 -26 -28 -86 -35 -133 -8 -46 -19 -87 -25 -91 -6 -4 -8 -15
-4 -24 3 -9 -3 -47 -13 -84 -11 -36 -23 -86 -27 -111 -4 -25 -10 -50 -15 -55
-4 -6 -8 -20 -7 -30 1 -25 -41 -177 -53 -189 -11 -12 -10 -34 -15 364 -3 184
-5 344 -6 355 -2 33 14 129 24 148 11 21 12 262 1 280 -9 15 -11 54 -17 317
-7 285 -13 417 -21 430 -3 5 -8 71 -10 146 -4 101 -1 152 10 194 18 68 19 116
5 125 -6 4 -10 30 -9 58 1 29 -3 75 -9 104 -9 41 -8 68 4 129 8 43 20 81 26
85 7 4 11 39 12 86 l1 78 32 -1 c23 -1 34 3 38 16 4 14 18 18 63 19 31 0 72
-3 90 -8 19 -6 45 -6 63 -1 30 9 90 15 222 24 32 2 61 7 64 10 13 12 137 5
201 -11z m2991 -1112 c9 -5 59 -14 111 -21 109 -13 126 -15 160 -24 17 -4 36
0 58 14 25 15 55 22 110 24 43 2 91 7 107 10 l30 7 -22 -19 c-13 -11 -23 -27
-23 -36 0 -9 -5 -16 -11 -16 -7 0 -9 -9 -6 -22 3 -12 -5 -58 -18 -104 -24 -84
-116 -286 -141 -311 -8 -8 -14 -20 -14 -27 0 -7 -9 -21 -20 -31 -13 -12 -20
-31 -20 -54 0 -56 -23 -201 -32 -201 -5 0 -8 -12 -7 -27 3 -34 -33 -163 -65
-235 -12 -29 -29 -92 -36 -140 -7 -49 -18 -88 -23 -88 -5 0 -7 -9 -4 -20 3
-11 -3 -48 -14 -83 -10 -34 -24 -89 -30 -122 -6 -33 -15 -65 -21 -72 -5 -7 -7
-17 -4 -22 15 -23 -56 -230 -104 -306 -10 -16 -19 -38 -19 -47 -1 -10 -9 -26
-20 -37 -24 -24 -51 -79 -51 -103 0 -11 4 -28 10 -38 7 -13 5 -29 -5 -54 -8
-19 -15 -57 -15 -83 0 -72 -2 -73 -110 -63 -52 5 -139 10 -192 10 -54 0 -98 4
-98 9 0 9 -695 6 -900 -4 -99 -5 -154 -2 -268 14 -154 23 -346 28 -358 10 -3
-6 -17 -8 -30 -5 -13 4 -65 1 -116 -5 -51 -6 -122 -10 -158 -9 -72 3 -290 3
-415 0 -44 -1 -109 -6 -145 -12 -108 -17 -336 -19 -450 -4 -58 8 -107 10 -110
6 -7 -11 -76 -23 -89 -16 -11 7 32 123 53 140 17 13 31 58 46 145 6 35 29 108
51 162 21 53 39 102 39 109 0 20 74 285 81 290 3 3 10 16 14 30 4 14 10 27 14
30 33 27 104 223 94 261 -3 10 -1 19 5 19 5 0 13 34 17 76 4 45 17 98 31 131
14 31 23 57 20 60 -2 2 7 31 20 63 13 33 24 71 24 85 0 15 4 34 9 44 6 10 19
71 30 137 12 65 25 120 31 122 5 2 10 16 10 30 0 15 6 37 13 49 55 98 60 110
58 151 -1 30 3 44 14 48 9 4 14 17 13 33 -1 14 -1 51 0 82 l2 55 148 -4 c81
-2 156 -9 167 -15 26 -14 56 -15 207 -5 77 4 166 3 225 -3 54 -5 128 -13 166
-16 37 -3 67 -10 67 -14 0 -5 18 -9 39 -9 22 0 52 -5 67 -10 20 -8 45 -7 93 4
58 12 215 32 232 28 3 0 71 3 150 8 79 4 176 5 214 2 41 -4 112 -2 170 6 55 7
113 10 129 7 16 -3 34 -1 40 4 6 5 96 11 199 14 104 3 191 8 194 11 10 10 363
7 382 -3z m-3934 -2501 c3 -5 -1 -10 -9 -10 -8 0 -18 5 -21 10 -3 6 1 10 9 10
8 0 18 -4 21 -10z"/>
</g>
</svg>
